<svg xmlns="http://www.w3.org/2000/svg" viewBox="0 0 128 128" width="128" height="128">
  <!-- PasDoc Logo — Document Page — Icon Only -->

  <!-- Source code lines in background -->
  <line x1="8" y1="10" x2="110" y2="10" stroke="#888" stroke-width="0.7" opacity="0.07" stroke-linecap="round"/>
  <line x1="14" y1="20" x2="118" y2="20" stroke="#888" stroke-width="0.7" opacity="0.07" stroke-linecap="round"/>
  <line x1="6" y1="30" x2="108" y2="30" stroke="#888" stroke-width="0.7" opacity="0.07" stroke-linecap="round"/>
  <line x1="12" y1="40" x2="120" y2="40" stroke="#888" stroke-width="0.7" opacity="0.07" stroke-linecap="round"/>
  <line x1="8" y1="50" x2="114" y2="50" stroke="#888" stroke-width="0.7" opacity="0.07" stroke-linecap="round"/>
  <line x1="14" y1="60" x2="110" y2="60" stroke="#888" stroke-width="0.7" opacity="0.07" stroke-linecap="round"/>
  <line x1="10" y1="70" x2="116" y2="70" stroke="#888" stroke-width="0.7" opacity="0.07" stroke-linecap="round"/>
  <line x1="16" y1="80" x2="112" y2="80" stroke="#888" stroke-width="0.7" opacity="0.07" stroke-linecap="round"/>
  <line x1="8" y1="90" x2="118" y2="90" stroke="#888" stroke-width="0.7" opacity="0.07" stroke-linecap="round"/>
  <line x1="12" y1="100" x2="114" y2="100" stroke="#888" stroke-width="0.7" opacity="0.07" stroke-linecap="round"/>
  <line x1="6" y1="110" x2="116" y2="110" stroke="#888" stroke-width="0.7" opacity="0.07" stroke-linecap="round"/>

  <!-- Document page -->
  <rect x="18" y="8" width="92" height="112" rx="3" fill="#F4F2EC" stroke="#1A7A5C" stroke-width="2"/>

  <!-- Folded corner -->
  <path d="M82 8 L110 8 L110 36 Z" fill="#E8E5DC" stroke="#1A7A5C" stroke-width="1.2" stroke-linejoin="round"/>
  <line x1="82" y1="8" x2="110" y2="36" stroke="#1A7A5C" stroke-width="1.2"/>

  <!-- Doc lines -->
  <line x1="32" y1="26" x2="72" y2="26" stroke="#1A7A5C" stroke-width="0.8" opacity="0.12" stroke-linecap="round"/>
  <line x1="32" y1="36" x2="64" y2="36" stroke="#1A7A5C" stroke-width="0.8" opacity="0.12" stroke-linecap="round"/>
  <line x1="32" y1="46" x2="68" y2="46" stroke="#1A7A5C" stroke-width="0.8" opacity="0.12" stroke-linecap="round"/>

  <!-- { } -->
  <text x="50" y="70" text-anchor="middle" dominant-baseline="central" font-family="'SF Mono','Cascadia Code','Consolas','Liberation Mono',monospace" font-size="48" font-weight="700" fill="#1A7A5C" opacity="0.72">{</text>
  <text x="80" y="70" text-anchor="middle" dominant-baseline="central" font-family="'SF Mono','Cascadia Code','Consolas','Liberation Mono',monospace" font-size="48" font-weight="700" fill="#C85A2A" opacity="0.72">}</text>
</svg>
